# xmcd CD database file
#
# Track frame offsets:
#	150
#	20030
#	40054
#	60132
#	82637
#	101469
#	120449
#	141881
#	163128
#	183741
#
# Disc length: 2745 seconds
#
# Revision: 0
# Processed by: cddbd v1.5.2PL0 Copyright (c) Steve Scherf et al.
# Submitted via: CDex 1.50beta10
#
DISCID=750ab70a
DTITLE=Tribute Sounds - Smooth Sax Tribute To Sade
DYEAR=2005
DGENRE=Jazz
TTITLE0=Smooth Operator
TTITLE1=Lovers Rock
TTITLE2=Maureen
TTITLE3=Cherish The Day
TTITLE4=Nothing Can Become Between Us
TTITLE5=Hang On To Your Love
TTITLE6=Sweetest TAboo
TTITLE7=Kiss Of Life
TTITLE8=No Ordinary Love
TTITLE9=Is It A Crime
EXTD=YEAR: 2005
EXTT0=
EXTT1=
EXTT2=
EXTT3=
EXTT4=
EXTT5=
EXTT6=
EXTT7=
EXTT8=
EXTT9=
PLAYORDER=
